<svg width="19" height="28" viewBox="0 0 19 28" fill="none" xmlns="http://www.w3.org/2000/svg">
<path d="M8.76162 27.7082L0.305861 19.6415C-0.101954 19.2524 -0.101954 18.6216 0.305861 18.2326L1.29209 17.2918C1.69921 16.9034 2.35903 16.9026 2.7671 17.2901L9.50002 23.6832L16.2329 17.2901C16.641 16.9026 17.3008 16.9034 17.7079 17.2918L18.6941 18.2326C19.102 18.6217 19.102 19.2524 18.6941 19.6415L10.2384 27.7082C9.83061 28.0973 9.16944 28.0973 8.76162 27.7082Z" fill="#3197DE"/>
<path d="M10.2384 0.291758L18.6941 8.35855C19.102 8.7476 19.102 9.37835 18.6941 9.76736L17.7079 10.7082C17.3008 11.0966 16.641 11.0974 16.2329 10.7099L9.49998 4.31681L2.76711 10.7099C2.35903 11.0974 1.69921 11.0966 1.29209 10.7082L0.305861 9.76736C-0.101954 9.37831 -0.101954 8.74756 0.305861 8.35855L8.76158 0.291758C9.16939 -0.0972538 9.83056 -0.0972538 10.2384 0.291758Z" fill="#3197DE"/>
</svg>
