<svg width="38" height="38" viewBox="0 0 38 38" fill="none" xmlns="http://www.w3.org/2000/svg">
<path d="M19 38C29.4934 38 38 29.4934 38 19C38 8.50658 29.4934 0 19 0C8.50658 0 0 8.50658 0 19C0 29.4934 8.50658 38 19 38Z" fill="#D1D1D1"/>
<path fill-rule="evenodd" clip-rule="evenodd" d="M32.6377 10.2935C32.6377 12.6282 30.8444 14.5209 28.6322 14.5209C26.42 14.5209 24.6267 12.6282 24.6267 10.2935C24.6267 7.95883 26.42 6.06616 28.6322 6.06616C30.8444 6.06616 32.6377 7.95883 32.6377 10.2935ZM13.7366 10.4493C13.7366 12.784 11.9433 14.6767 9.73111 14.6767C7.51894 14.6767 5.72565 12.784 5.72565 10.4493C5.72565 8.11465 7.51894 6.22198 9.73111 6.22198C11.9433 6.22198 13.7366 8.11465 13.7366 10.4493ZM32.0163 21.1436C32.0163 24.9814 30.2316 30.8357 28.7216 30.8357C27.2115 30.8357 25.2519 24.8336 25.2519 20.9954C25.2519 17.1572 27.2119 16.9372 28.7216 16.9372C30.2313 16.9372 32.0163 17.3054 32.0163 21.1436ZM9.82048 30.9915C11.3302 30.9915 13.1148 25.1372 13.1148 21.299C13.1148 17.4612 11.3306 17.093 9.82048 17.093C8.31041 17.093 6.35045 17.3134 6.35045 21.1512C6.35045 24.989 8.31079 30.9915 9.82048 30.9915ZM24.2227 19.1966L21.6234 19.2309C21.4733 19.1354 21.3265 19.0324 21.1793 18.9292C20.8964 18.7309 20.6125 18.5318 20.3031 18.3839C19.8636 18.1738 19.3148 18.0986 18.9053 18.3625C18.6227 18.5453 18.4545 18.8569 18.2946 19.1531C18.2778 19.1842 18.261 19.2152 18.2443 19.2459C18.2064 19.315 18.1675 19.3838 18.1286 19.4525C17.9863 19.7039 17.8438 19.9555 17.7539 20.2293C17.6916 20.4168 17.6569 20.6173 17.6916 20.8113C17.7264 21.0053 17.8406 21.1917 18.0174 21.2788C18.2374 21.3868 18.5124 21.3204 18.7068 21.1703C18.9011 21.0202 19.0279 20.8006 19.1349 20.5799C19.1571 20.5339 19.1786 20.4877 19.2001 20.4414V20.4414C19.2561 20.3211 19.312 20.2009 19.3793 20.0864L19.3867 20.0739C19.454 19.9596 19.5411 19.8119 19.673 19.7718C19.7385 19.7546 19.8078 19.7592 19.8704 19.7847C20.001 19.8336 20.1265 19.9192 20.2475 20.0018C20.2967 20.0353 20.3451 20.0684 20.3929 20.0983C20.58 20.2155 20.7668 20.3335 20.9524 20.4538C21.3225 20.6941 21.6876 20.9446 22.0381 21.2119C22.1909 21.3284 22.3483 21.4594 22.4067 21.642C22.4674 21.8306 22.4094 22.0369 22.328 22.2175C22.3074 22.2627 22.2852 22.3075 22.2631 22.3524L22.2631 22.3524C22.2169 22.446 22.1706 22.5398 22.1371 22.6376C22.1321 22.6521 22.1308 22.6677 22.1331 22.6829C22.1353 22.698 22.1412 22.7125 22.1501 22.7249C22.1591 22.7374 22.1709 22.7476 22.1846 22.7545C22.1982 22.7615 22.2134 22.7652 22.2287 22.7652L24.2528 22.7686C24.2685 22.7686 24.2839 22.7648 24.2977 22.7576C24.3115 22.7503 24.3234 22.7398 24.3323 22.727C24.3412 22.7142 24.3469 22.6994 24.3488 22.6838C24.3507 22.6683 24.3489 22.6526 24.3434 22.638C24.1555 22.109 24.1486 21.5373 24.144 20.9786C24.1394 20.4199 24.1795 19.8584 24.3178 19.3161C24.3214 19.3018 24.3216 19.2868 24.3185 19.2724C24.3153 19.258 24.3089 19.2444 24.2997 19.2329C24.2905 19.2213 24.2788 19.2121 24.2654 19.2058C24.2521 19.1995 24.2375 19.1963 24.2227 19.1966ZM19.5401 20.67C19.5698 20.6042 19.611 20.5443 19.6619 20.4932C19.6946 20.4506 19.7376 20.4171 19.7868 20.3958C19.8632 20.3458 19.9571 20.3748 20.0541 20.434C20.3262 20.6003 20.6018 20.7909 20.8773 20.9815C21.154 21.1729 21.4307 21.3644 21.704 21.5312C21.7953 21.5866 21.8934 21.6515 21.9213 21.7546C21.9346 21.8259 21.928 21.8995 21.9022 21.9673C21.8387 22.1852 21.7514 22.3954 21.6417 22.5941C21.5653 22.7285 21.4752 22.8641 21.3362 22.9301C21.2884 22.9532 21.2359 22.9648 21.1829 22.964C21.1299 22.9632 21.0777 22.95 21.0307 22.9256C21.01 22.9136 20.9936 22.9 20.9793 22.8882C20.9392 22.8549 20.9165 22.8361 20.8649 22.9091C20.8325 22.9565 20.8035 23.0061 20.7782 23.0577C20.7484 23.1103 20.7228 23.1652 20.7018 23.2219C20.6209 23.422 20.4826 23.6134 20.2817 23.7184C20.0744 23.8269 19.7822 23.8983 19.6325 23.7184C19.4732 24.0621 19.1291 24.1721 18.7541 24.1385C18.3791 24.1049 17.5702 23.6038 17.5702 23.6038C17.5702 23.6038 17.0917 23.283 16.7682 23.1837C16.5849 23.1133 16.2791 23.0834 16.067 23.0627C16.0493 23.061 16.0322 23.0593 16.0158 23.0577C15.6818 23.0247 15.36 23.0567 15.0365 23.0888C14.7941 23.1128 14.5507 23.137 14.3003 23.1341C14.2875 23.1339 14.2685 23.1352 14.247 23.1366C14.1903 23.1405 14.1156 23.1456 14.0879 23.1276C14.0528 23.1046 14.0633 23.0483 14.0733 22.9954C14.0762 22.98 14.079 22.9648 14.0807 22.9508C14.0998 22.7924 14.1152 22.6335 14.1269 22.4741C14.1495 22.1526 14.1596 21.8336 14.1571 21.5171C14.1545 21.2006 14.1388 20.885 14.1101 20.5703C14.0963 20.4127 14.0789 20.2556 14.0578 20.099C14.0543 20.0721 14.0456 20.0353 14.036 19.9943C14.0108 19.8868 13.9787 19.7504 14.0146 19.6866C14.0566 19.6119 14.1954 19.6234 14.2964 19.6318C14.324 19.6341 14.3487 19.6362 14.3679 19.6362H14.8487H15.8104C15.8669 19.6421 15.9239 19.6298 15.973 19.601C16.0118 19.565 16.0392 19.5184 16.0517 19.467C16.1682 19.1378 16.3278 18.7952 16.6307 18.6211C16.8209 18.5111 17.0466 18.482 17.2658 18.4683C17.4121 18.4591 17.5591 18.4561 17.7058 18.4591C17.7791 18.4603 17.8524 18.4633 17.9257 18.4675C17.992 18.4662 18.0582 18.473 18.1228 18.4878C18.134 18.4904 18.1446 18.4955 18.1536 18.5026C18.1627 18.5097 18.1701 18.5188 18.1753 18.5291C18.1805 18.5394 18.1834 18.5507 18.1838 18.5622C18.1841 18.5738 18.182 18.5852 18.1774 18.5959C18.1584 18.6545 18.1236 18.7127 18.0899 18.769C18.0742 18.7953 18.0588 18.8211 18.0453 18.8464L17.8994 19.1202L17.7535 19.3944L17.6771 19.5353C17.6724 19.5441 17.6646 19.5559 17.6559 19.569C17.6355 19.5997 17.6103 19.6375 17.6103 19.6602C17.4239 20.0104 17.2318 20.3855 17.2643 20.7808C17.2791 20.9603 17.3401 21.1328 17.4414 21.2817C17.5427 21.4306 17.6809 21.5507 17.8424 21.6303C18.004 21.7099 18.1834 21.7462 18.3632 21.7358C18.543 21.7254 18.717 21.6686 18.8683 21.5709C19.1798 21.3696 19.3583 21.0229 19.5286 20.6923L19.5401 20.67Z" fill="white"/>
</svg>
